#!OML:ASF E:\Steps\Project 1\Capture day 1\Session 2\Subject.ASF
:FULLY-SPECIFIED
:DEGREES
323
root 4.20872 18.0153 16.9344 -152.311 -12.2666 175.733
lowerback -23.4148 0.16244 -5.93622
upperback 0.447349 1.8213 -1.3482
thorax 13.5757 0.381224 2.46946
lowerneck -0.107981 8.58826 1.98656
upperneck 8.02894 11.2531 -0.0261933
head 2.68822 5.57996 -0.0655179
rclavicle -4.5385e-014 2.85256e-014
rhumerus -37.055 -19.6013 -75.9919
rradius 28.7923
rwrist 2.81051
rhand -13.8437 -54.1031
rfingers 7.12502
rthumb 12.2798 -83.7225
lclavicle -4.5385e-014 2.85256e-014
lhumerus -25.1524 0.0383253 79.9159
lradius 33.6265
lwrist 0.393875
lhand -23.6486 -15.5217
lfingers 7.12502
lthumb 2.8167 14.4395
rfemur -24.1143 3.3114 20.4076
rtibia 5.14527
rfoot -16.5351 -9.67217
rtoes -10.505
lfemur -29.9737 -13.2204 -20.1302
ltibia 12.0932
lfoot -3.75476 -8.13852
ltoes -7.16482
324
root 4.21506 18.0157 16.9378 -152.274 -12.6734 175.67
lowerback -23.2831 0.324043 -5.93038
upperback 0.385801 2.02364 -1.38905
thorax 13.4129 0.481473 2.48507
lowerneck 0.0886651 9.06489 1.92635
upperneck 7.51974 11.9172 -0.0761826
head 2.48965 5.91695 -0.0787667
rclavicle 2.38542e-014 2.73826e-014
rhumerus -37.0899 -20.1424 -75.5834
rradius 28.2475
rwrist 3.10172
rhand -14.0435 -53.6026
rfingers 7.12502
rthumb 12.0871 -83.2335
lclavicle 2.38542e-014 2.73826e-014
lhumerus -25.3296 0.0940498 79.8761
lradius 33.674
lwrist 0.532303
lhand -23.7402 -15.5029
lfingers 7.12502
lthumb 2.72828 14.4594
rfemur -24.0481 3.45532 20.3453
rtibia 5.00901
rfoot -16.6054 -10.1308
rtoes -9.69929
lfemur -30.1493 -13.448 -20.0674
ltibia 12.2808
lfoot -3.68985 -8.35293
ltoes -7.68974
325
root 4.21988 18.0188 16.9358 -152.299 -13.1943 175.424
lowerback -22.9906 0.465922 -6.05099
upperback 0.278611 2.22341 -1.49849
thorax 13.1047 0.579372 2.48832
lowerneck 0.679769 9.57642 1.80792
upperneck 6.7764 12.624 -0.0261474
head 2.13519 6.27641 -0.0843101
rclavicle -6.20954e-014 -1.0138e-014
rhumerus -37.3141 -20.6061 -75.1959
rradius 27.8631
rwrist 3.11999
rhand -13.7795 -54.0109
rfingers 7.12502
rthumb 12.3417 -83.6266
lclavicle -6.20954e-014 -1.0138e-014
lhumerus -25.6624 0.278192 79.6832
lradius 33.6788
lwrist -0.173848
lhand -23.5943 -15.2251
lfingers 7.12502
lthumb 2.86915 14.7353
rfemur -23.7589 3.11072 20.221
rtibia 4.80323
rfoot -16.7022 -10.3324
rtoes -9.43002
lfemur -30.1364 -13.7336 -20.2577
ltibia 12.3921
lfoot -3.52691 -8.75222
ltoes -7.10371
326
root 4.22796 18.0209 16.9304 -152.343 -13.6648 175.174
lowerback -22.7953 0.569401 -6.24056
upperback 0.267661 2.40548 -1.57987
thorax 12.9625 0.658946 2.55884
lowerneck 0.798245 9.98924 1.81676
upperneck 6.34989 13.1995 -0.160781
head 1.99227 6.56807 -0.134712
rclavicle -8.99501e-015 2.34566e-014
rhumerus -37.2391 -21.0144 -74.9067
rradius 27.2347
rwrist 3.48723
rhand -13.9224 -54.2122
rfingers 7.12502
rthumb 12.204 -83.8362
lclavicle -8.99501e-015 2.34566e-014
lhumerus -25.6688 0.336374 79.5119
lradius 33.4669
lwrist -0.541285
lhand -23.3255 -14.8838
lfingers 7.12502
lthumb 3.12878 15.073
rfemur -23.4712 2.78963 20.0852
rtibia 4.64618
rfoot -16.7972 -10.5447
rtoes -9.33452
lfemur -30.0669 -14.0756 -20.4059
ltibia 12.4393
lfoot -3.34139 -8.89217
ltoes -5.53235
327
root 4.24188 18.0186 16.9251 -152.261 -13.896 175.061
lowerback -22.8548 0.698635 -6.42298
upperback 0.250447 2.6303 -1.61034
thorax 12.9503 0.750401 2.7027
lowerneck 0.956452 10.3698 1.85498
upperneck 5.71113 13.7514 -0.592982
head 1.80103 6.84671 -0.288475
rclavicle -3.17062e-014 -1.72943e-014
rhumerus -36.9891 -21.2593 -74.7039
rradius 26.574
rwrist 3.94487
rhand -14.138 -54.1963
rfingers 7.12502
rthumb 11.996 -83.8326
lclavicle -3.17062e-014 -1.72943e-014
lhumerus -25.637 0.391867 79.4806
lradius 33.2323
lwrist 2.36596e-005
lhand -23.4629 -15.0188
lfingers 7.12502
lthumb 2.99603 14.9399
rfemur -23.4809 3.05987 19.9237
rtibia 4.56996
rfoot -16.867 -10.9976
rtoes -9.38427
lfemur -30.1899 -14.1872 -20.367
ltibia 12.4618
lfoot -3.24326 -8.85315
ltoes -6.00242
328
root 4.25742 18.0167 16.9196 -152.104 -14.158 174.977
lowerback -22.952 0.862873 -6.54612
upperback 0.150281 2.88142 -1.68796
thorax 12.8637 0.86064 2.76757
lowerneck 1.48921 10.8132 1.80335
upperneck 4.68646 14.3811 -0.917864
head 1.41331 7.16823 -0.432751
rclavicle 2.69105e-014 -1.64991e-014
rhumerus -36.986 -21.5871 -74.5236
rradius 26.3654
rwrist 4.02049
rhand -13.6695 -55.1128
rfingers 7.12502
rthumb 12.4477 -84.7221
lclavicle 2.69105e-014 -1.64991e-014
lhumerus -25.7435 0.515778 79.3636
lradius 32.9552
lwrist 0.1935
lhand -23.9122 -15.1909
lfingers 7.12502
lthumb 2.56212 14.7735
rfemur -23.577 3.37335 19.8039
rtibia 4.50783
rfoot -16.9318 -11.5194
rtoes -9.76785
lfemur -30.4221 -14.2085 -20.2903
ltibia 12.5167
lfoot -3.25565 -8.89313
ltoes -7.67321
329
root 4.2647 18.0173 16.919 -152.038 -14.7109 174.897
lowerback -22.929 0.989974 -6.48531
upperback 0.12988 3.03842 -1.75999
thorax 12.82 0.941259 2.70157
lowerneck 1.21375 11.1139 1.91701
upperneck 4.90232 14.7805 -0.918511
head 1.54418 7.36845 -0.418281
rclavicle -6.16481e-014 3.07122e-014
rhumerus -36.9954 -22.4101 -74.0543
rradius 25.6248
rwrist 4.84705
rhand -13.8843 -54.1001
rfingers 7.12502
rthumb 12.2407 -83.7219
lclavicle -6.16481e-014 3.07122e-014
lhumerus -25.7418 0.732634 79.1988
lradius 32.7363
lwrist -0.0303765
lhand -24.1502 -15.0434
lfingers 7.12502
lthumb 2.3323 14.9236
rfemur -23.5059 3.21523 19.8599
rtibia 4.42993
rfoot -17.0217 -11.8829
rtoes -10.1754
lfemur -30.5975 -14.4577 -20.2251
ltibia 12.6675
lfoot -3.19957 -9.08495
ltoes -7.46488
330
root 4.26351 18.0174 16.9235 -151.968 -15.2843 174.77
lowerback -22.9161 1.11612 -6.36716
upperback 0.176655 3.19023 -1.83645
thorax 12.8652 1.02107 2.59796
lowerneck 1.18572 11.508 1.84962
upperneck 4.29932 15.332 -1.22667
head 1.38658 7.64766 -0.509452
rclavicle 1.13804e-014 1.21259e-014
rhumerus -36.8179 -22.8396 -73.8357
rradius 25.082
rwrist 5.28488
rhand -14.0877 -53.7812
rfingers 7.12502
rthumb 12.0445 -83.4146
lclavicle 1.13804e-014 1.21259e-014
lhumerus -25.6686 1.08132 79.0449
lradius 32.6001
lwrist -0.0208972
lhand -23.9637 -15.1212
lfingers 7.12502
lthumb 2.5124 14.8437
rfemur -23.4056 2.67092 19.9324
rtibia 4.31767
rfoot -17.0061 -11.9053
rtoes -9.96755
lfemur -30.7381 -14.8152 -20.2778
ltibia 12.8217
lfoot -3.13665 -9.32307
ltoes -7.40366
331
root 4.26514 18.0238 16.9219 -152.097 -16.1735 174.388
lowerback -22.5623 1.12113 -6.48115
upperback 0.24469 3.22102 -1.92036
thorax 12.7418 1.03936 2.56681
lowerneck 1.33433 11.8484 1.9835
upperneck 3.41947 15.8232 -1.947
head 1.16732 7.89917 -0.771948
rclavicle -1.35174e-014 6.59965e-014
rhumerus -36.7594 -22.9184 -73.7722
rradius 24.8937
rwrist 5.26343
rhand -14.1827 -53.8213
rfingers 7.12502
rthumb 11.9529 -83.46
lclavicle -1.35174e-014 6.59965e-014
lhumerus -25.7179 1.26461 78.8828
lradius 32.4303
lwrist -0.0335372
lhand -23.9702 -15.141
lfingers 7.12502
lthumb 2.50617 14.824
rfemur -22.7273 2.27221 19.7305
rtibia 3.82203
rfoot -16.9798 -12.4644
rtoes -9.14196
lfemur -30.5047 -15.2811 -20.6108
ltibia 12.8909
lfoot -2.98163 -9.84588
ltoes -7.19722
